<?xml version="1.0" standalone="no"?>
<!DOCTYPE svg PUBLIC "-//W3C//DTD SVG 20010904//EN"
 "http://www.w3.org/TR/2001/REC-SVG-20010904/DTD/svg10.dtd">
<svg version="1.0" xmlns="http://www.w3.org/2000/svg"
 width="512.000000pt" height="512.000000pt" viewBox="0 0 512.000000 512.000000"
 preserveAspectRatio="xMidYMid meet">

<g transform="translate(0.000000,512.000000) scale(0.100000,-0.100000)"
fill="#000000" stroke="none">
<path d="M1840 4280 l0 -40 -160 0 -160 0 0 -40 0 -40 -80 0 -80 0 0 -40 0
-40 -80 0 -80 0 0 -40 0 -40 -40 0 -40 0 0 -40 0 -40 -40 0 -40 0 0 -40 0 -40
-40 0 -40 0 0 -40 0 -40 -40 0 -40 0 0 -40 0 -40 -40 0 -40 0 0 -40 0 -40 -40
0 -40 0 0 -80 0 -80 -40 0 -40 0 0 -320 0 -320 40 0 40 0 0 -80 0 -80 40 0 40
0 0 -40 0 -40 40 0 40 0 0 -40 0 -40 -40 0 -40 0 0 -160 0 -160 40 0 40 0 0
-80 0 -80 40 0 40 0 0 -480 0 -480 40 0 40 0 0 -40 0 -40 40 0 40 0 0 -40 0
-40 560 0 560 0 0 -120 0 -120 40 0 40 0 0 -120 0 -120 40 0 40 0 0 120 0 120
-40 0 -40 0 0 120 0 120 600 0 600 0 0 -40 0 -40 -40 0 -40 0 0 -120 0 -120
-40 0 -40 0 0 -80 0 -80 40 0 40 0 0 80 0 80 40 0 40 0 0 120 0 120 40 0 40 0
0 40 0 40 160 0 160 0 0 40 0 40 40 0 40 0 0 40 0 40 200 0 200 0 0 40 0 40
40 0 40 0 0 40 0 40 40 0 40 0 0 40 0 40 40 0 40 0 0 40 0 40 40 0 40 0 0 200
0 200 40 0 40 0 0 120 0 120 40 0 40 0 0 80 0 80 40 0 40 0 0 160 0 160 -160
0 -160 0 0 40 0 40 -200 0 -200 0 0 40 0 40 40 0 40 0 0 80 0 80 40 0 40 0 0
320 0 320 -40 0 -40 0 0 80 0 80 -40 0 -40 0 0 40 0 40 -40 0 -40 0 0 40 0 40
-40 0 -40 0 0 40 0 40 -40 0 -40 0 0 40 0 40 -40 0 -40 0 0 40 0 40 -40 0 -40
0 0 40 0 40 -80 0 -80 0 0 40 0 40 -80 0 -80 0 0 40 0 40 -160 0 -160 0 0 40
0 40 -680 0 -680 0 0 -40z m1360 -80 l0 -40 160 0 160 0 0 -40 0 -40 80 0 80
0 0 -40 0 -40 80 0 80 0 0 -40 0 -40 40 0 40 0 0 -40 0 -40 40 0 40 0 0 -40 0
-40 40 0 40 0 0 -40 0 -40 40 0 40 0 0 -40 0 -40 40 0 40 0 0 -80 0 -80 40 0
40 0 0 -320 0 -320 -40 0 -40 0 0 -80 0 -80 -40 0 -40 0 0 -40 0 -40 -320 0
-320 0 0 -40 0 -40 -200 0 -200 0 0 -40 0 -40 -240 0 -240 0 0 40 0 40 -200 0
-200 0 0 40 0 40 -480 0 -480 0 0 40 0 40 -40 0 -40 0 0 80 0 80 -40 0 -40 0
0 320 0 320 40 0 40 0 0 80 0 80 40 0 40 0 0 40 0 40 40 0 40 0 0 40 0 40 40
0 40 0 0 40 0 40 40 0 40 0 0 40 0 40 40 0 40 0 0 40 0 40 80 0 80 0 0 40 0
40 80 0 80 0 0 40 0 40 160 0 160 0 0 40 0 40 480 0 480 0 0 -40z m-1040
-1760 l0 -40 80 0 80 0 0 -40 0 -40 80 0 80 0 0 -40 0 -40 40 0 40 0 0 -240 0
-240 -40 0 -40 0 0 -40 0 -40 -40 0 -40 0 0 -80 0 -80 40 0 40 0 0 40 0 40 40
0 40 0 0 40 0 40 40 0 40 0 0 80 0 80 40 0 40 0 0 120 0 120 40 0 40 0 0 40 0
40 80 0 80 0 0 -40 0 -40 40 0 40 0 0 -120 0 -120 40 0 40 0 0 -80 0 -80 40 0
40 0 0 -40 0 -40 40 0 40 0 0 -40 0 -40 40 0 40 0 0 80 0 80 -40 0 -40 0 0 40
0 40 -40 0 -40 0 0 240 0 240 40 0 40 0 0 40 0 40 80 0 80 0 0 40 0 40 80 0
80 0 0 40 0 40 200 0 200 0 0 -640 0 -640 -160 0 -160 0 0 40 0 40 -40 0 -40
0 0 40 0 40 -40 0 -40 0 0 40 0 40 -40 0 -40 0 0 40 0 40 -40 0 -40 0 0 -80 0
-80 40 0 40 0 0 -40 0 -40 40 0 40 0 0 -40 0 -40 40 0 40 0 0 -40 0 -40 40 0
40 0 0 -40 0 -40 120 0 120 0 0 -40 0 -40 -1200 0 -1200 0 0 40 0 40 280 0
280 0 0 40 0 40 40 0 40 0 0 40 0 40 40 0 40 0 0 40 0 40 40 0 40 0 0 40 0 40
40 0 40 0 0 80 0 80 -40 0 -40 0 0 -40 0 -40 -40 0 -40 0 0 -40 0 -40 -40 0
-40 0 0 -40 0 -40 -40 0 -40 0 0 -40 0 -40 -320 0 -320 0 0 640 0 640 360 0
360 0 0 -40z m2160 0 l0 -40 80 0 80 0 0 -40 0 -40 40 0 40 0 0 -40 0 -40 40
0 40 0 0 -360 0 -360 -40 0 -40 0 0 -80 0 -80 -40 0 -40 0 0 -40 0 -40 -40 0
-40 0 0 -40 0 -40 -160 0 -160 0 0 160 0 160 40 0 40 0 0 120 0 120 -40 0 -40
0 0 360 0 360 120 0 120 0 0 -40z m-3360 -160 l0 -40 -40 0 -40 0 0 40 0 40
40 0 40 0 0 -40z m3920 0 l0 -40 -80 0 -80 0 0 40 0 40 80 0 80 0 0 -40z"/>
<path d="M2160 1960 l0 -120 -40 0 -40 0 0 -80 0 -80 40 0 40 0 0 -40 0 -40
40 0 40 0 0 40 0 40 40 0 40 0 0 160 0 160 -40 0 -40 0 0 40 0 40 -40 0 -40 0
0 -120z"/>
<path d="M3520 1960 l0 -120 -40 0 -40 0 0 -80 0 -80 40 0 40 0 0 -40 0 -40
40 0 40 0 0 40 0 40 40 0 40 0 0 160 0 160 -40 0 -40 0 0 40 0 40 -40 0 -40 0
0 -120z"/>
<path d="M2640 1560 l0 -40 40 0 40 0 0 -40 0 -40 160 0 160 0 0 40 0 40 40 0
40 0 0 40 0 40 -40 0 -40 0 0 -40 0 -40 -160 0 -160 0 0 40 0 40 -40 0 -40 0
0 -40z"/>
<path d="M4160 1440 l0 -80 40 0 40 0 0 80 0 80 -40 0 -40 0 0 -80z"/>
</g>
</svg>
